# xmcd
#
# Track frame offsets: 
#        150
#        15447
#        31742
#        47812
#        65492
#        77220
#        90580
#        107750
#        125622
#        144127
#        158877
#        174335
#
# Disc length: 2573 seconds
#
# Revision: 0
# Processed by: cddbd v1.5.1PL0 Copyright (c) Steve Scherf et al.
# Submitted via: ExactAudioCopy v0.95b2
#
DISCID=8e0a0b0c
DTITLE=Hanna McEuen - Hanna McEuen
DYEAR=2005
DGENRE=Country
TTITLE0=Fool Around
TTITLE1=Blue Sunrise
TTITLE2=Read Between The Lies
TTITLE3=Something Like A Broken Heart
TTITLE4=End Of Me
TTITLE5=Wild Eyes Of Love
TTITLE6=Prayer For You
TTITLE7=Is It Only Me
TTITLE8=Someone Else
TTITLE9=Tell Me
TTITLE10=Rock And A Heartache
TTITLE11=Ocean
EXTD=
EXTT0=
EXTT1=
EXTT2=
EXTT3=
EXTT4=
EXTT5=
EXTT6=
EXTT7=
EXTT8=
EXTT9=
EXTT10=
EXTT11=
PLAYORDER=
